<svg width="30" height="30" viewBox="0 0 30 30" fill="none" xmlns="http://www.w3.org/2000/svg">
<path d="M25.0772 23.3719C26.4236 21.752 27.36 19.8316 27.8072 17.7733C28.2544 15.715 28.1993 13.5792 27.6466 11.5466C27.0938 9.51411 26.0596 7.6446 24.6316 6.09627C23.2035 4.54794 21.4235 3.36634 19.4421 2.65143C17.4608 1.93652 15.3364 1.70933 13.2487 1.98908C11.161 2.26883 9.17139 3.04729 7.44817 4.25861C5.72495 5.46992 4.31883 7.07846 3.34874 8.94814C2.37866 10.8178 1.87316 12.8936 1.87501 15C1.87571 18.0621 2.95477 21.0261 4.92282 23.3719L4.90407 23.3878C4.96969 23.4666 5.04469 23.5341 5.11219 23.6119C5.19657 23.7084 5.2875 23.7994 5.37469 23.8931C5.63719 24.1781 5.90719 24.4519 6.19032 24.7088C6.27657 24.7875 6.36563 24.8606 6.45282 24.9356C6.75282 25.1944 7.06125 25.44 7.38094 25.6688C7.42219 25.6969 7.45969 25.7334 7.50094 25.7625V25.7513C9.69666 27.2964 12.316 28.1257 15.0009 28.1257C17.6858 28.1257 20.3052 27.2964 22.5009 25.7513V25.7625C22.5422 25.7334 22.5788 25.6969 22.6209 25.6688C22.9397 25.4391 23.2491 25.1944 23.5491 24.9356C23.6363 24.8606 23.7253 24.7866 23.8116 24.7088C24.0947 24.4509 24.3647 24.1781 24.6272 23.8931C24.7144 23.7994 24.8044 23.7084 24.8897 23.6119C24.9563 23.5341 25.0322 23.4666 25.0978 23.3869L25.0772 23.3719ZM15 7.50001C15.8344 7.50001 16.65 7.74743 17.3438 8.211C18.0376 8.67456 18.5783 9.33344 18.8976 10.1043C19.2169 10.8752 19.3005 11.7234 19.1377 12.5418C18.9749 13.3602 18.5731 14.1119 17.9831 14.7019C17.3931 15.2919 16.6414 15.6937 15.823 15.8564C15.0047 16.0192 14.1564 15.9357 13.3856 15.6164C12.6147 15.2971 11.9558 14.7563 11.4922 14.0626C11.0287 13.3688 10.7813 12.5531 10.7813 11.7188C10.7813 10.5999 11.2257 9.52682 12.0169 8.73565C12.8081 7.94448 13.8811 7.50001 15 7.50001ZM7.50657 23.3719C7.52283 22.1409 8.02308 20.9658 8.89909 20.1009C9.7751 19.2359 10.9564 18.7506 12.1875 18.75H17.8125C19.0436 18.7506 20.2249 19.2359 21.1009 20.1009C21.9769 20.9658 22.4772 22.1409 22.4934 23.3719C20.4374 25.2247 17.7677 26.2501 15 26.2501C12.2323 26.2501 9.56265 25.2247 7.50657 23.3719Z" fill="white"/>
</svg>
