<svg width="64" height="64" viewBox="0 0 64 64" fill="none" xmlns="http://www.w3.org/2000/svg">
<path d="M32 56C45.2548 56 56 45.2548 56 32C56 18.7452 45.2548 8 32 8C18.7452 8 8 18.7452 8 32C8 45.2548 18.7452 56 32 56Z" stroke="#383838" stroke-linecap="round" stroke-linejoin="round"/>
<path d="M23 29C24.1046 29 25 28.1046 25 27C25 25.8954 24.1046 25 23 25C21.8954 25 21 25.8954 21 27C21 28.1046 21.8954 29 23 29Z" fill="#383838"/>
<path d="M41 29C42.1046 29 43 28.1046 43 27C43 25.8954 42.1046 25 41 25C39.8954 25 39 25.8954 39 27C39 28.1046 39.8954 29 41 29Z" fill="#383838"/>
<path d="M42.4003 44C41.3431 42.1785 39.8259 40.6666 38.0008 39.6157C36.1756 38.5647 34.1064 38.0116 32.0003 38.0116C29.8942 38.0116 27.8251 38.5647 25.9999 39.6157C24.1747 40.6666 22.6576 42.1785 21.6003 44" stroke="#383838" stroke-linecap="round" stroke-linejoin="round"/>
</svg>
