<svg width="25" height="24" viewBox="0 0 25 24" fill="none" xmlns="http://www.w3.org/2000/svg">
<path d="M20.75 7.5H4.25C3.83579 7.5 3.5 7.83579 3.5 8.25V11.25C3.5 11.6642 3.83579 12 4.25 12H20.75C21.1642 12 21.5 11.6642 21.5 11.25V8.25C21.5 7.83579 21.1642 7.5 20.75 7.5Z" stroke="#666766" stroke-linecap="round" stroke-linejoin="round"/>
<path d="M20 12V18.75C20 18.9489 19.921 19.1397 19.7803 19.2803C19.6397 19.421 19.4489 19.5 19.25 19.5H5.75C5.55109 19.5 5.36032 19.421 5.21967 19.2803C5.07902 19.1397 5 18.9489 5 18.75V12" stroke="#666766" stroke-linecap="round" stroke-linejoin="round"/>
<path d="M12.5 7.5V19.5" stroke="#666766" stroke-linecap="round" stroke-linejoin="round"/>
<path d="M16.7469 6.44061C15.6781 7.49998 12.5 7.49998 12.5 7.49998C12.5 7.49998 12.5 4.32186 13.5594 3.25311C13.9821 2.83042 14.5554 2.59296 15.1531 2.59296C15.7509 2.59296 16.3242 2.83042 16.7469 3.25311C17.1696 3.6758 17.407 4.24909 17.407 4.84686C17.407 5.44463 17.1696 6.01792 16.7469 6.44061V6.44061Z" stroke="#666766" stroke-linecap="round" stroke-linejoin="round"/>
<path d="M8.25317 6.44061C9.32192 7.49998 12.5 7.49998 12.5 7.49998C12.5 7.49998 12.5 4.32186 11.4407 3.25311C11.018 2.83042 10.4447 2.59296 9.84692 2.59296C9.24915 2.59296 8.67586 2.83042 8.25317 3.25311C7.83048 3.6758 7.59302 4.24909 7.59302 4.84686C7.59302 5.44463 7.83048 6.01792 8.25317 6.44061V6.44061Z" stroke="#666766" stroke-linecap="round" stroke-linejoin="round"/>
</svg>
